<svg width="50" height="50" viewBox="0 0 50 50" fill="none" xmlns="http://www.w3.org/2000/svg">
<rect width="50" height="50" rx="4" fill="white"/>
<path d="M32.5 27.25V24.625C32.5 23.7299 32.1444 22.8715 31.5115 22.2385C30.8786 21.6056 30.0201 21.25 29.125 21.25H27.625C27.3266 21.25 27.0405 21.1315 26.8295 20.9205C26.6185 20.7095 26.5 20.4234 26.5 20.125V18.625C26.5 17.7299 26.1444 16.8714 25.5115 16.2385C24.8785 15.6056 24.0201 15.25 23.125 15.25H21.25M23.5 15.25H18.625C18.004 15.25 17.5 15.754 17.5 16.375V33.625C17.5 34.246 18.004 34.75 18.625 34.75H31.375C31.996 34.75 32.5 34.246 32.5 33.625V24.25C32.5 21.8631 31.5518 19.5739 29.864 17.886C28.1761 16.1982 25.8869 15.25 23.5 15.25V15.25Z" stroke="#5483D0" stroke-width="1.5" stroke-linecap="round" stroke-linejoin="round"/>
</svg>
