<svg width="240" height="240" viewBox="0 0 240 240" fill="none" xmlns="http://www.w3.org/2000/svg">
<rect width="240" height="240" rx="8" fill="#F6F7FC"/>
<path d="M120.5 98.5V113.5M128 106H113" stroke="#5483D0" stroke-width="2" stroke-linecap="round" stroke-linejoin="round"/>
<path d="M81.6662 131.818H83.2074V138.515C83.2074 139.228 83.04 139.859 82.7053 140.409C82.3705 140.956 81.8999 141.387 81.2933 141.702C80.6868 142.013 79.9759 142.169 79.1605 142.169C78.3485 142.169 77.6392 142.013 77.0327 141.702C76.4261 141.387 75.9555 140.956 75.6207 140.409C75.286 139.859 75.1186 139.228 75.1186 138.515V131.818H76.6548V138.391C76.6548 138.851 76.7559 139.261 76.9581 139.619C77.1636 139.977 77.4536 140.258 77.8281 140.464C78.2027 140.666 78.6468 140.767 79.1605 140.767C79.6776 140.767 80.1233 140.666 80.4979 140.464C80.8757 140.258 81.1641 139.977 81.3629 139.619C81.5651 139.261 81.6662 138.851 81.6662 138.391V131.818ZM85.3216 144.864V134.364H86.7733V135.602H86.8975C86.9837 135.442 87.108 135.259 87.2704 135.05C87.4328 134.841 87.6582 134.659 87.9466 134.503C88.2349 134.344 88.6161 134.264 89.09 134.264C89.7065 134.264 90.2567 134.42 90.7406 134.732C91.2245 135.043 91.604 135.492 91.8791 136.079C92.1575 136.665 92.2967 137.371 92.2967 138.197C92.2967 139.022 92.1592 139.73 91.8841 140.32C91.609 140.906 91.2311 141.359 90.7505 141.677C90.2699 141.992 89.7214 142.149 89.1049 142.149C88.6409 142.149 88.2614 142.071 87.9664 141.915C87.6748 141.76 87.4461 141.577 87.2804 141.369C87.1146 141.16 86.987 140.974 86.8975 140.812H86.8081V144.864H85.3216ZM86.7782 138.182C86.7782 138.719 86.8561 139.189 87.0119 139.594C87.1677 139.998 87.3931 140.315 87.688 140.543C87.983 140.769 88.3443 140.881 88.7718 140.881C89.216 140.881 89.5872 140.764 89.8855 140.528C90.1838 140.29 90.4092 139.967 90.5616 139.559C90.7174 139.151 90.7953 138.692 90.7953 138.182C90.7953 137.678 90.719 137.226 90.5666 136.825C90.4174 136.424 90.1921 136.107 89.8904 135.875C89.5922 135.643 89.2193 135.527 88.7718 135.527C88.341 135.527 87.9764 135.638 87.6781 135.86C87.3831 136.082 87.1594 136.392 87.0069 136.79C86.8545 137.187 86.7782 137.652 86.7782 138.182ZM95.4487 131.818V142H93.9622V131.818H95.4487ZM100.665 142.154C99.9492 142.154 99.3245 141.99 98.7908 141.662C98.2572 141.334 97.8429 140.875 97.5479 140.285C97.253 139.695 97.1055 139.005 97.1055 138.217C97.1055 137.424 97.253 136.732 97.5479 136.138C97.8429 135.545 98.2572 135.085 98.7908 134.756C99.3245 134.428 99.9492 134.264 100.665 134.264C101.381 134.264 102.006 134.428 102.539 134.756C103.073 135.085 103.487 135.545 103.782 136.138C104.077 136.732 104.225 137.424 104.225 138.217C104.225 139.005 104.077 139.695 103.782 140.285C103.487 140.875 103.073 141.334 102.539 141.662C102.006 141.99 101.381 142.154 100.665 142.154ZM100.67 140.906C101.134 140.906 101.519 140.784 101.824 140.538C102.128 140.293 102.354 139.967 102.5 139.559C102.649 139.151 102.723 138.702 102.723 138.212C102.723 137.724 102.649 137.277 102.5 136.869C102.354 136.458 102.128 136.129 101.824 135.88C101.519 135.631 101.134 135.507 100.67 135.507C100.203 135.507 99.815 135.631 99.5067 135.88C99.2018 136.129 98.9748 136.458 98.8256 136.869C98.6798 137.277 98.6069 137.724 98.6069 138.212C98.6069 138.702 98.6798 139.151 98.8256 139.559C98.9748 139.967 99.2018 140.293 99.5067 140.538C99.815 140.784 100.203 140.906 100.67 140.906ZM108.106 142.169C107.622 142.169 107.185 142.08 106.794 141.901C106.403 141.718 106.093 141.455 105.864 141.11C105.639 140.765 105.526 140.343 105.526 139.842C105.526 139.411 105.609 139.057 105.775 138.778C105.94 138.5 106.164 138.28 106.446 138.117C106.728 137.955 107.042 137.832 107.39 137.749C107.738 137.666 108.093 137.603 108.454 137.56C108.912 137.507 109.283 137.464 109.568 137.431C109.853 137.395 110.06 137.337 110.189 137.257C110.319 137.178 110.383 137.048 110.383 136.869V136.835C110.383 136.4 110.261 136.064 110.015 135.825C109.773 135.587 109.412 135.467 108.932 135.467C108.431 135.467 108.037 135.578 107.748 135.8C107.463 136.019 107.266 136.263 107.157 136.531L105.76 136.213C105.925 135.749 106.167 135.375 106.486 135.089C106.807 134.801 107.177 134.592 107.594 134.463C108.012 134.33 108.451 134.264 108.912 134.264C109.217 134.264 109.54 134.301 109.881 134.374C110.226 134.443 110.547 134.572 110.846 134.761C111.147 134.95 111.394 135.22 111.586 135.572C111.779 135.92 111.875 136.372 111.875 136.929V142H110.423V140.956H110.363C110.267 141.148 110.123 141.337 109.931 141.523C109.739 141.708 109.492 141.862 109.19 141.985C108.889 142.108 108.527 142.169 108.106 142.169ZM108.43 140.976C108.84 140.976 109.192 140.895 109.483 140.732C109.778 140.57 110.002 140.358 110.155 140.096C110.31 139.831 110.388 139.547 110.388 139.246V138.261C110.335 138.314 110.233 138.364 110.08 138.411C109.931 138.454 109.76 138.492 109.568 138.525C109.376 138.555 109.189 138.583 109.006 138.609C108.824 138.633 108.671 138.652 108.549 138.669C108.26 138.705 107.997 138.767 107.758 138.853C107.523 138.939 107.334 139.063 107.192 139.226C107.052 139.385 106.983 139.597 106.983 139.862C106.983 140.23 107.119 140.509 107.39 140.697C107.662 140.883 108.009 140.976 108.43 140.976ZM116.713 142.149C116.097 142.149 115.547 141.992 115.063 141.677C114.582 141.359 114.204 140.906 113.929 140.32C113.658 139.73 113.522 139.022 113.522 138.197C113.522 137.371 113.659 136.665 113.934 136.079C114.213 135.492 114.594 135.043 115.078 134.732C115.562 134.42 116.11 134.264 116.723 134.264C117.197 134.264 117.578 134.344 117.867 134.503C118.158 134.659 118.384 134.841 118.543 135.05C118.705 135.259 118.831 135.442 118.921 135.602H119.01V131.818H120.497V142H119.045V140.812H118.921C118.831 140.974 118.702 141.16 118.533 141.369C118.367 141.577 118.139 141.76 117.847 141.915C117.555 142.071 117.177 142.149 116.713 142.149ZM117.042 140.881C117.469 140.881 117.83 140.769 118.125 140.543C118.424 140.315 118.649 139.998 118.801 139.594C118.957 139.189 119.035 138.719 119.035 138.182C119.035 137.652 118.959 137.187 118.806 136.79C118.654 136.392 118.43 136.082 118.135 135.86C117.84 135.638 117.476 135.527 117.042 135.527C116.594 135.527 116.221 135.643 115.923 135.875C115.625 136.107 115.399 136.424 115.247 136.825C115.098 137.226 115.023 137.678 115.023 138.182C115.023 138.692 115.099 139.151 115.252 139.559C115.404 139.967 115.63 140.29 115.928 140.528C116.23 140.764 116.601 140.881 117.042 140.881ZM127.979 131.818V142H126.443V131.818H127.979ZM130.097 142V134.364H131.524V135.607H131.618C131.777 135.186 132.038 134.857 132.399 134.622C132.76 134.384 133.193 134.264 133.696 134.264C134.207 134.264 134.634 134.384 134.979 134.622C135.327 134.861 135.584 135.189 135.75 135.607H135.829C136.011 135.199 136.301 134.874 136.699 134.632C137.097 134.387 137.571 134.264 138.121 134.264C138.814 134.264 139.379 134.481 139.816 134.915C140.257 135.35 140.478 136.004 140.478 136.879V142H138.991V137.018C138.991 136.501 138.85 136.127 138.569 135.895C138.287 135.663 137.95 135.547 137.559 135.547C137.075 135.547 136.699 135.696 136.431 135.994C136.162 136.289 136.028 136.669 136.028 137.133V142H134.547V136.924C134.547 136.51 134.417 136.177 134.159 135.925C133.9 135.673 133.564 135.547 133.15 135.547C132.868 135.547 132.608 135.621 132.369 135.771C132.134 135.916 131.943 136.12 131.797 136.382C131.655 136.644 131.583 136.947 131.583 137.292V142H130.097ZM144.692 142.169C144.208 142.169 143.771 142.08 143.38 141.901C142.989 141.718 142.679 141.455 142.45 141.11C142.225 140.765 142.112 140.343 142.112 139.842C142.112 139.411 142.195 139.057 142.361 138.778C142.526 138.5 142.75 138.28 143.032 138.117C143.314 137.955 143.628 137.832 143.976 137.749C144.324 137.666 144.679 137.603 145.04 137.56C145.498 137.507 145.869 137.464 146.154 137.431C146.439 137.395 146.646 137.337 146.775 137.257C146.905 137.178 146.969 137.048 146.969 136.869V136.835C146.969 136.4 146.847 136.064 146.601 135.825C146.359 135.587 145.998 135.467 145.518 135.467C145.017 135.467 144.623 135.578 144.334 135.8C144.049 136.019 143.852 136.263 143.743 136.531L142.346 136.213C142.511 135.749 142.753 135.375 143.072 135.089C143.393 134.801 143.763 134.592 144.18 134.463C144.598 134.33 145.037 134.264 145.498 134.264C145.803 134.264 146.126 134.301 146.467 134.374C146.812 134.443 147.133 134.572 147.432 134.761C147.733 134.95 147.98 135.22 148.172 135.572C148.365 135.92 148.461 136.372 148.461 136.929V142H147.009V140.956H146.949C146.853 141.148 146.709 141.337 146.517 141.523C146.325 141.708 146.078 141.862 145.776 141.985C145.474 142.108 145.113 142.169 144.692 142.169ZM145.015 140.976C145.426 140.976 145.778 140.895 146.069 140.732C146.364 140.57 146.588 140.358 146.741 140.096C146.896 139.831 146.974 139.547 146.974 139.246V138.261C146.921 138.314 146.818 138.364 146.666 138.411C146.517 138.454 146.346 138.492 146.154 138.525C145.962 138.555 145.774 138.583 145.592 138.609C145.41 138.633 145.257 138.652 145.135 138.669C144.846 138.705 144.583 138.767 144.344 138.853C144.109 138.939 143.92 139.063 143.778 139.226C143.638 139.385 143.569 139.597 143.569 139.862C143.569 140.23 143.705 140.509 143.976 140.697C144.248 140.883 144.595 140.976 145.015 140.976ZM153.642 145.023C153.036 145.023 152.514 144.943 152.076 144.784C151.642 144.625 151.288 144.415 151.012 144.153C150.737 143.891 150.532 143.604 150.396 143.293L151.674 142.766C151.763 142.911 151.882 143.066 152.032 143.228C152.184 143.394 152.39 143.535 152.648 143.651C152.91 143.767 153.246 143.825 153.657 143.825C154.221 143.825 154.686 143.687 155.054 143.412C155.422 143.14 155.606 142.706 155.606 142.109V140.608H155.512C155.422 140.77 155.293 140.951 155.124 141.15C154.958 141.349 154.73 141.521 154.438 141.667C154.146 141.813 153.767 141.886 153.299 141.886C152.696 141.886 152.153 141.745 151.669 141.463C151.188 141.178 150.807 140.759 150.525 140.205C150.247 139.648 150.108 138.964 150.108 138.152C150.108 137.34 150.245 136.644 150.52 136.064C150.799 135.484 151.18 135.04 151.664 134.732C152.148 134.42 152.696 134.264 153.309 134.264C153.783 134.264 154.166 134.344 154.458 134.503C154.749 134.659 154.976 134.841 155.139 135.05C155.305 135.259 155.432 135.442 155.522 135.602H155.631V134.364H157.088V142.169C157.088 142.825 156.935 143.364 156.63 143.785C156.325 144.206 155.913 144.517 155.392 144.719C154.875 144.922 154.292 145.023 153.642 145.023ZM153.627 140.653C154.055 140.653 154.416 140.553 154.711 140.354C155.01 140.152 155.235 139.864 155.387 139.489C155.543 139.112 155.621 138.659 155.621 138.132C155.621 137.618 155.545 137.166 155.392 136.775C155.24 136.384 155.016 136.079 154.721 135.86C154.426 135.638 154.062 135.527 153.627 135.527C153.18 135.527 152.807 135.643 152.509 135.875C152.211 136.104 151.985 136.415 151.833 136.81C151.684 137.204 151.609 137.645 151.609 138.132C151.609 138.633 151.685 139.072 151.838 139.45C151.99 139.827 152.216 140.122 152.514 140.335C152.815 140.547 153.187 140.653 153.627 140.653ZM162.373 142.154C161.62 142.154 160.972 141.993 160.429 141.672C159.888 141.347 159.471 140.891 159.176 140.305C158.884 139.715 158.738 139.024 158.738 138.232C158.738 137.449 158.884 136.76 159.176 136.163C159.471 135.567 159.882 135.101 160.409 134.766C160.939 134.432 161.559 134.264 162.268 134.264C162.699 134.264 163.117 134.335 163.521 134.478C163.925 134.621 164.288 134.844 164.61 135.149C164.931 135.454 165.185 135.85 165.37 136.337C165.556 136.821 165.649 137.41 165.649 138.102V138.629H159.578V137.516H164.192C164.192 137.125 164.113 136.778 163.953 136.477C163.794 136.172 163.571 135.931 163.282 135.756C162.997 135.58 162.663 135.492 162.278 135.492C161.86 135.492 161.496 135.595 161.184 135.8C160.876 136.003 160.637 136.268 160.468 136.596C160.303 136.921 160.22 137.274 160.22 137.655V138.525C160.22 139.035 160.309 139.469 160.488 139.827C160.671 140.185 160.924 140.459 161.249 140.648C161.574 140.833 161.953 140.926 162.387 140.926C162.669 140.926 162.926 140.886 163.158 140.807C163.39 140.724 163.591 140.601 163.76 140.439C163.929 140.277 164.058 140.076 164.147 139.837L165.554 140.091C165.442 140.505 165.239 140.868 164.948 141.18C164.659 141.488 164.297 141.728 163.859 141.901C163.425 142.07 162.929 142.154 162.373 142.154Z" fill="#5483D0"/>
</svg>
