<svg width="240" height="240" viewBox="0 0 240 240" fill="none" xmlns="http://www.w3.org/2000/svg">
<rect width="240" height="240" rx="8" fill="#F6F7FC"/>
<path d="M120.5 98.5V113.5M128 106H113" stroke="#5483D0" stroke-width="2" stroke-linecap="round" stroke-linejoin="round"/>
<path d="M82.6662 131.818H84.2074V138.515C84.2074 139.228 84.04 139.859 83.7053 140.409C83.3705 140.956 82.8999 141.387 82.2933 141.702C81.6868 142.013 80.9759 142.169 80.1605 142.169C79.3485 142.169 78.6392 142.013 78.0327 141.702C77.4261 141.387 76.9555 140.956 76.6207 140.409C76.286 139.859 76.1186 139.228 76.1186 138.515V131.818H77.6548V138.391C77.6548 138.851 77.7559 139.261 77.9581 139.619C78.1636 139.977 78.4536 140.258 78.8281 140.464C79.2027 140.666 79.6468 140.767 80.1605 140.767C80.6776 140.767 81.1233 140.666 81.4979 140.464C81.8757 140.258 82.1641 139.977 82.3629 139.619C82.5651 139.261 82.6662 138.851 82.6662 138.391V131.818ZM86.3216 144.864V134.364H87.7733V135.602H87.8975C87.9837 135.442 88.108 135.259 88.2704 135.05C88.4328 134.841 88.6582 134.659 88.9466 134.503C89.2349 134.344 89.6161 134.264 90.09 134.264C90.7065 134.264 91.2567 134.42 91.7406 134.732C92.2245 135.043 92.604 135.492 92.8791 136.079C93.1575 136.665 93.2967 137.371 93.2967 138.197C93.2967 139.022 93.1592 139.73 92.8841 140.32C92.609 140.906 92.2311 141.359 91.7505 141.677C91.2699 141.992 90.7214 142.149 90.1049 142.149C89.6409 142.149 89.2614 142.071 88.9664 141.915C88.6748 141.76 88.4461 141.577 88.2804 141.369C88.1146 141.16 87.987 140.974 87.8975 140.812H87.8081V144.864H86.3216ZM87.7782 138.182C87.7782 138.719 87.8561 139.189 88.0119 139.594C88.1677 139.998 88.3931 140.315 88.688 140.543C88.983 140.769 89.3443 140.881 89.7718 140.881C90.216 140.881 90.5872 140.764 90.8855 140.528C91.1838 140.29 91.4092 139.967 91.5616 139.559C91.7174 139.151 91.7953 138.692 91.7953 138.182C91.7953 137.678 91.719 137.226 91.5666 136.825C91.4174 136.424 91.1921 136.107 90.8904 135.875C90.5922 135.643 90.2193 135.527 89.7718 135.527C89.341 135.527 88.9764 135.638 88.6781 135.86C88.3831 136.082 88.1594 136.392 88.0069 136.79C87.8545 137.187 87.7782 137.652 87.7782 138.182ZM96.4487 131.818V142H94.9622V131.818H96.4487ZM101.665 142.154C100.949 142.154 100.324 141.99 99.7908 141.662C99.2572 141.334 98.8429 140.875 98.5479 140.285C98.253 139.695 98.1055 139.005 98.1055 138.217C98.1055 137.424 98.253 136.732 98.5479 136.138C98.8429 135.545 99.2572 135.085 99.7908 134.756C100.324 134.428 100.949 134.264 101.665 134.264C102.381 134.264 103.006 134.428 103.539 134.756C104.073 135.085 104.487 135.545 104.782 136.138C105.077 136.732 105.225 137.424 105.225 138.217C105.225 139.005 105.077 139.695 104.782 140.285C104.487 140.875 104.073 141.334 103.539 141.662C103.006 141.99 102.381 142.154 101.665 142.154ZM101.67 140.906C102.134 140.906 102.519 140.784 102.824 140.538C103.128 140.293 103.354 139.967 103.5 139.559C103.649 139.151 103.723 138.702 103.723 138.212C103.723 137.724 103.649 137.277 103.5 136.869C103.354 136.458 103.128 136.129 102.824 135.88C102.519 135.631 102.134 135.507 101.67 135.507C101.203 135.507 100.815 135.631 100.507 135.88C100.202 136.129 99.9748 136.458 99.8256 136.869C99.6798 137.277 99.6069 137.724 99.6069 138.212C99.6069 138.702 99.6798 139.151 99.8256 139.559C99.9748 139.967 100.202 140.293 100.507 140.538C100.815 140.784 101.203 140.906 101.67 140.906ZM109.106 142.169C108.622 142.169 108.185 142.08 107.794 141.901C107.403 141.718 107.093 141.455 106.864 141.11C106.639 140.765 106.526 140.343 106.526 139.842C106.526 139.411 106.609 139.057 106.775 138.778C106.94 138.5 107.164 138.28 107.446 138.117C107.728 137.955 108.042 137.832 108.39 137.749C108.738 137.666 109.093 137.603 109.454 137.56C109.912 137.507 110.283 137.464 110.568 137.431C110.853 137.395 111.06 137.337 111.189 137.257C111.319 137.178 111.383 137.048 111.383 136.869V136.835C111.383 136.4 111.261 136.064 111.015 135.825C110.773 135.587 110.412 135.467 109.932 135.467C109.431 135.467 109.037 135.578 108.748 135.8C108.463 136.019 108.266 136.263 108.157 136.531L106.76 136.213C106.925 135.749 107.167 135.375 107.486 135.089C107.807 134.801 108.177 134.592 108.594 134.463C109.012 134.33 109.451 134.264 109.912 134.264C110.217 134.264 110.54 134.301 110.881 134.374C111.226 134.443 111.547 134.572 111.846 134.761C112.147 134.95 112.394 135.22 112.586 135.572C112.779 135.92 112.875 136.372 112.875 136.929V142H111.423V140.956H111.363C111.267 141.148 111.123 141.337 110.931 141.523C110.739 141.708 110.492 141.862 110.19 141.985C109.889 142.108 109.527 142.169 109.106 142.169ZM109.43 140.976C109.84 140.976 110.192 140.895 110.483 140.732C110.778 140.57 111.002 140.358 111.155 140.096C111.31 139.831 111.388 139.547 111.388 139.246V138.261C111.335 138.314 111.233 138.364 111.08 138.411C110.931 138.454 110.76 138.492 110.568 138.525C110.376 138.555 110.189 138.583 110.006 138.609C109.824 138.633 109.671 138.652 109.549 138.669C109.26 138.705 108.997 138.767 108.758 138.853C108.523 138.939 108.334 139.063 108.192 139.226C108.052 139.385 107.983 139.597 107.983 139.862C107.983 140.23 108.119 140.509 108.39 140.697C108.662 140.883 109.009 140.976 109.43 140.976ZM117.713 142.149C117.097 142.149 116.547 141.992 116.063 141.677C115.582 141.359 115.204 140.906 114.929 140.32C114.658 139.73 114.522 139.022 114.522 138.197C114.522 137.371 114.659 136.665 114.934 136.079C115.213 135.492 115.594 135.043 116.078 134.732C116.562 134.42 117.11 134.264 117.723 134.264C118.197 134.264 118.578 134.344 118.867 134.503C119.158 134.659 119.384 134.841 119.543 135.05C119.705 135.259 119.831 135.442 119.921 135.602H120.01V131.818H121.497V142H120.045V140.812H119.921C119.831 140.974 119.702 141.16 119.533 141.369C119.367 141.577 119.139 141.76 118.847 141.915C118.555 142.071 118.177 142.149 117.713 142.149ZM118.042 140.881C118.469 140.881 118.83 140.769 119.125 140.543C119.424 140.315 119.649 139.998 119.801 139.594C119.957 139.189 120.035 138.719 120.035 138.182C120.035 137.652 119.959 137.187 119.806 136.79C119.654 136.392 119.43 136.082 119.135 135.86C118.84 135.638 118.476 135.527 118.042 135.527C117.594 135.527 117.221 135.643 116.923 135.875C116.625 136.107 116.399 136.424 116.247 136.825C116.098 137.226 116.023 137.678 116.023 138.182C116.023 138.692 116.099 139.151 116.252 139.559C116.404 139.967 116.63 140.29 116.928 140.528C117.23 140.764 117.601 140.881 118.042 140.881ZM128.333 131.818L131.167 140.111H131.281L134.115 131.818H135.775L132.111 142H130.336L126.672 131.818H128.333ZM137.126 142V134.364H138.613V142H137.126ZM137.877 133.185C137.618 133.185 137.396 133.099 137.211 132.927C137.028 132.751 136.937 132.542 136.937 132.3C136.937 132.055 137.028 131.846 137.211 131.674C137.396 131.498 137.618 131.411 137.877 131.411C138.135 131.411 138.356 131.498 138.538 131.674C138.724 131.846 138.817 132.055 138.817 132.3C138.817 132.542 138.724 132.751 138.538 132.927C138.356 133.099 138.135 133.185 137.877 133.185ZM143.471 142.149C142.855 142.149 142.305 141.992 141.821 141.677C141.34 141.359 140.962 140.906 140.687 140.32C140.415 139.73 140.279 139.022 140.279 138.197C140.279 137.371 140.417 136.665 140.692 136.079C140.971 135.492 141.352 135.043 141.836 134.732C142.319 134.42 142.868 134.264 143.481 134.264C143.955 134.264 144.336 134.344 144.625 134.503C144.916 134.659 145.142 134.841 145.301 135.05C145.463 135.259 145.589 135.442 145.679 135.602H145.768V131.818H147.255V142H145.803V140.812H145.679C145.589 140.974 145.46 141.16 145.291 141.369C145.125 141.577 144.896 141.76 144.605 141.915C144.313 142.071 143.935 142.149 143.471 142.149ZM143.799 140.881C144.227 140.881 144.588 140.769 144.883 140.543C145.181 140.315 145.407 139.998 145.559 139.594C145.715 139.189 145.793 138.719 145.793 138.182C145.793 137.652 145.717 137.187 145.564 136.79C145.412 136.392 145.188 136.082 144.893 135.86C144.598 135.638 144.234 135.527 143.799 135.527C143.352 135.527 142.979 135.643 142.681 135.875C142.382 136.107 142.157 136.424 142.005 136.825C141.855 137.226 141.781 137.678 141.781 138.182C141.781 138.692 141.857 139.151 142.01 139.559C142.162 139.967 142.387 140.29 142.686 140.528C142.987 140.764 143.359 140.881 143.799 140.881ZM152.667 142.154C151.915 142.154 151.267 141.993 150.724 141.672C150.183 141.347 149.766 140.891 149.471 140.305C149.179 139.715 149.033 139.024 149.033 138.232C149.033 137.449 149.179 136.76 149.471 136.163C149.766 135.567 150.177 135.101 150.704 134.766C151.234 134.432 151.854 134.264 152.563 134.264C152.994 134.264 153.412 134.335 153.816 134.478C154.22 134.621 154.583 134.844 154.905 135.149C155.226 135.454 155.48 135.85 155.665 136.337C155.851 136.821 155.944 137.41 155.944 138.102V138.629H149.873V137.516H154.487C154.487 137.125 154.407 136.778 154.248 136.477C154.089 136.172 153.866 135.931 153.577 135.756C153.292 135.58 152.957 135.492 152.573 135.492C152.155 135.492 151.791 135.595 151.479 135.8C151.171 136.003 150.932 136.268 150.763 136.596C150.598 136.921 150.515 137.274 150.515 137.655V138.525C150.515 139.035 150.604 139.469 150.783 139.827C150.965 140.185 151.219 140.459 151.544 140.648C151.869 140.833 152.248 140.926 152.682 140.926C152.964 140.926 153.221 140.886 153.453 140.807C153.685 140.724 153.885 140.601 154.055 140.439C154.224 140.277 154.353 140.076 154.442 139.837L155.849 140.091C155.737 140.505 155.534 140.868 155.243 141.18C154.954 141.488 154.591 141.728 154.154 141.901C153.72 142.07 153.224 142.154 152.667 142.154ZM160.81 142.154C160.094 142.154 159.469 141.99 158.935 141.662C158.402 141.334 157.987 140.875 157.692 140.285C157.397 139.695 157.25 139.005 157.25 138.217C157.25 137.424 157.397 136.732 157.692 136.138C157.987 135.545 158.402 135.085 158.935 134.756C159.469 134.428 160.094 134.264 160.81 134.264C161.526 134.264 162.15 134.428 162.684 134.756C163.218 135.085 163.632 135.545 163.927 136.138C164.222 136.732 164.369 137.424 164.369 138.217C164.369 139.005 164.222 139.695 163.927 140.285C163.632 140.875 163.218 141.334 162.684 141.662C162.15 141.99 161.526 142.154 160.81 142.154ZM160.815 140.906C161.279 140.906 161.663 140.784 161.968 140.538C162.273 140.293 162.498 139.967 162.644 139.559C162.793 139.151 162.868 138.702 162.868 138.212C162.868 137.724 162.793 137.277 162.644 136.869C162.498 136.458 162.273 136.129 161.968 135.88C161.663 135.631 161.279 135.507 160.815 135.507C160.347 135.507 159.96 135.631 159.651 135.88C159.346 136.129 159.119 136.458 158.97 136.869C158.824 137.277 158.751 137.724 158.751 138.212C158.751 138.702 158.824 139.151 158.97 139.559C159.119 139.967 159.346 140.293 159.651 140.538C159.96 140.784 160.347 140.906 160.815 140.906Z" fill="#5483D0"/>
</svg>
