<svg width="160" height="160" viewBox="0 0 160 160" fill="none" xmlns="http://www.w3.org/2000/svg">
<rect width="160" height="160" rx="8" fill="#F6F7FC"/>
<path d="M80.5 58.5V73.5M88 66H73" stroke="#5483D0" stroke-width="2" stroke-linecap="round" stroke-linejoin="round"/>
<path d="M52.1662 91.8182H53.7074V98.5149C53.7074 99.2275 53.54 99.8589 53.2053 100.409C52.8705 100.956 52.3999 101.387 51.7933 101.702C51.1868 102.013 50.4759 102.169 49.6605 102.169C48.8485 102.169 48.1392 102.013 47.5327 101.702C46.9261 101.387 46.4555 100.956 46.1207 100.409C45.786 99.8589 45.6186 99.2275 45.6186 98.5149V91.8182H47.1548V98.3906C47.1548 98.8513 47.2559 99.2607 47.4581 99.6186C47.6636 99.9766 47.9536 100.258 48.3281 100.464C48.7027 100.666 49.1468 100.767 49.6605 100.767C50.1776 100.767 50.6233 100.666 50.9979 100.464C51.3757 100.258 51.6641 99.9766 51.8629 99.6186C52.0651 99.2607 52.1662 98.8513 52.1662 98.3906V91.8182ZM55.8216 104.864V94.3636H57.2733V95.6016H57.3975C57.4837 95.4425 57.608 95.2585 57.7704 95.0497C57.9328 94.8409 58.1582 94.6586 58.4466 94.5028C58.7349 94.3438 59.1161 94.2642 59.59 94.2642C60.2065 94.2642 60.7567 94.42 61.2406 94.7315C61.7245 95.0431 62.104 95.4922 62.3791 96.0788C62.6575 96.6655 62.7967 97.3714 62.7967 98.1967C62.7967 99.022 62.6592 99.7296 62.3841 100.32C62.109 100.906 61.7311 101.359 61.2505 101.677C60.7699 101.992 60.2214 102.149 59.6049 102.149C59.1409 102.149 58.7614 102.071 58.4664 101.915C58.1748 101.76 57.9461 101.577 57.7804 101.369C57.6146 101.16 57.487 100.974 57.3975 100.812H57.3081V104.864H55.8216ZM57.2782 98.1818C57.2782 98.7187 57.3561 99.1894 57.5119 99.5938C57.6677 99.9981 57.8931 100.315 58.188 100.543C58.483 100.769 58.8443 100.881 59.2718 100.881C59.716 100.881 60.0872 100.764 60.3855 100.528C60.6838 100.29 60.9092 99.9666 61.0616 99.5589C61.2174 99.1513 61.2953 98.6922 61.2953 98.1818C61.2953 97.678 61.219 97.2256 61.0666 96.8246C60.9174 96.4235 60.6921 96.107 60.3904 95.875C60.0922 95.643 59.7193 95.527 59.2718 95.527C58.841 95.527 58.4764 95.638 58.1781 95.8601C57.8831 96.0821 57.6594 96.392 57.5069 96.7898C57.3545 97.1875 57.2782 97.6515 57.2782 98.1818ZM65.9487 91.8182V102H64.4622V91.8182H65.9487ZM71.1651 102.154C70.4492 102.154 69.8245 101.99 69.2908 101.662C68.7572 101.334 68.3429 100.875 68.0479 100.285C67.753 99.6948 67.6055 99.0054 67.6055 98.2166C67.6055 97.4245 67.753 96.7318 68.0479 96.1385C68.3429 95.5452 68.7572 95.0845 69.2908 94.7564C69.8245 94.4283 70.4492 94.2642 71.1651 94.2642C71.881 94.2642 72.5058 94.4283 73.0394 94.7564C73.573 95.0845 73.9873 95.5452 74.2823 96.1385C74.5773 96.7318 74.7248 97.4245 74.7248 98.2166C74.7248 99.0054 74.5773 99.6948 74.2823 100.285C73.9873 100.875 73.573 101.334 73.0394 101.662C72.5058 101.99 71.881 102.154 71.1651 102.154ZM71.1701 100.906C71.6341 100.906 72.0186 100.784 72.3235 100.538C72.6284 100.293 72.8538 99.9666 72.9996 99.5589C73.1488 99.1513 73.2234 98.7022 73.2234 98.2116C73.2234 97.7244 73.1488 97.277 72.9996 96.8693C72.8538 96.4583 72.6284 96.1286 72.3235 95.88C72.0186 95.6314 71.6341 95.5071 71.1701 95.5071C70.7028 95.5071 70.315 95.6314 70.0067 95.88C69.7018 96.1286 69.4748 96.4583 69.3256 96.8693C69.1798 97.277 69.1069 97.7244 69.1069 98.2116C69.1069 98.7022 69.1798 99.1513 69.3256 99.5589C69.4748 99.9666 69.7018 100.293 70.0067 100.538C70.315 100.784 70.7028 100.906 71.1701 100.906ZM78.6064 102.169C78.1225 102.169 77.685 102.08 77.2939 101.901C76.9028 101.718 76.5929 101.455 76.3642 101.11C76.1388 100.765 76.0261 100.343 76.0261 99.8423C76.0261 99.4115 76.109 99.0568 76.2747 98.7784C76.4404 98.5 76.6641 98.2796 76.9458 98.1172C77.2276 97.9548 77.5424 97.8321 77.8904 97.7493C78.2385 97.6664 78.5931 97.6035 78.9544 97.5604C79.4118 97.5073 79.783 97.4643 80.068 97.4311C80.353 97.3946 80.5602 97.3366 80.6895 97.2571C80.8187 97.1776 80.8833 97.0483 80.8833 96.8693V96.8345C80.8833 96.4003 80.7607 96.0639 80.5154 95.8253C80.2735 95.5866 79.9122 95.4673 79.4316 95.4673C78.9312 95.4673 78.5368 95.5784 78.2484 95.8004C77.9634 96.0192 77.7662 96.2628 77.6568 96.5312L76.2598 96.2131C76.4255 95.7491 76.6674 95.3745 76.9856 95.0895C77.3071 94.8011 77.6767 94.5923 78.0943 94.4631C78.5119 94.3305 78.9511 94.2642 79.4118 94.2642C79.7167 94.2642 80.0398 94.3007 80.3812 94.3736C80.7259 94.4432 81.0474 94.5724 81.3457 94.7614C81.6473 94.9503 81.8942 95.2204 82.0865 95.5717C82.2787 95.9197 82.3748 96.3722 82.3748 96.929V102H80.9231V100.956H80.8635C80.7673 101.148 80.6232 101.337 80.4309 101.523C80.2387 101.708 79.9918 101.862 79.6902 101.985C79.3886 102.108 79.0273 102.169 78.6064 102.169ZM78.9295 100.976C79.3405 100.976 79.6918 100.895 79.9835 100.732C80.2785 100.57 80.5022 100.358 80.6547 100.096C80.8104 99.8307 80.8883 99.5473 80.8883 99.2457V98.2614C80.8353 98.3144 80.7325 98.3641 80.5801 98.4105C80.4309 98.4536 80.2602 98.4917 80.068 98.5249C79.8758 98.5547 79.6885 98.5829 79.5062 98.6094C79.3239 98.6326 79.1715 98.6525 79.0488 98.669C78.7605 98.7055 78.497 98.7668 78.2583 98.853C78.023 98.9392 77.8341 99.0634 77.6916 99.2259C77.5524 99.3849 77.4828 99.5971 77.4828 99.8622C77.4828 100.23 77.6187 100.509 77.8904 100.697C78.1622 100.883 78.5086 100.976 78.9295 100.976ZM87.2134 102.149C86.5969 102.149 86.0468 101.992 85.5629 101.677C85.0823 101.359 84.7044 100.906 84.4293 100.32C84.1576 99.7296 84.0217 99.022 84.0217 98.1967C84.0217 97.3714 84.1592 96.6655 84.4343 96.0788C84.7127 95.4922 85.0939 95.0431 85.5778 94.7315C86.0617 94.42 86.6102 94.2642 87.2234 94.2642C87.6973 94.2642 88.0785 94.3438 88.3668 94.5028C88.6585 94.6586 88.8839 94.8409 89.043 95.0497C89.2054 95.2585 89.3313 95.4425 89.4208 95.6016H89.5103V91.8182H90.9968V102H89.5451V100.812H89.4208C89.3313 100.974 89.2021 101.16 89.033 101.369C88.8673 101.577 88.6386 101.76 88.3469 101.915C88.0553 102.071 87.6774 102.149 87.2134 102.149ZM87.5415 100.881C87.9691 100.881 88.3304 100.769 88.6254 100.543C88.9237 100.315 89.149 99.9981 89.3015 99.5938C89.4573 99.1894 89.5352 98.7187 89.5352 98.1818C89.5352 97.6515 89.4589 97.1875 89.3065 96.7898C89.154 96.392 88.9303 96.0821 88.6353 95.8601C88.3403 95.638 87.9757 95.527 87.5415 95.527C87.0941 95.527 86.7212 95.643 86.4229 95.875C86.1246 96.107 85.8993 96.4235 85.7468 96.8246C85.5977 97.2256 85.5231 97.678 85.5231 98.1818C85.5231 98.6922 85.5993 99.1513 85.7518 99.5589C85.9042 99.9666 86.1296 100.29 86.4279 100.528C86.7295 100.764 87.1007 100.881 87.5415 100.881ZM100.458 94.3636V95.5568H96.1424V94.3636H100.458ZM97.3256 102V93.4787C97.3256 93.0014 97.43 92.6053 97.6388 92.2905C97.8477 91.9723 98.1244 91.7353 98.4691 91.5795C98.8138 91.4205 99.1883 91.3409 99.5927 91.3409C99.891 91.3409 100.146 91.3658 100.358 91.4155C100.57 91.4619 100.728 91.505 100.831 91.5447L100.483 92.7479C100.413 92.728 100.324 92.7048 100.214 92.6783C100.105 92.6484 99.9722 92.6335 99.8164 92.6335C99.4551 92.6335 99.1966 92.723 99.0408 92.902C98.8884 93.081 98.8121 93.3395 98.8121 93.6776V102H97.3256ZM101.991 102V94.3636H103.478V102H101.991ZM102.742 93.1854C102.484 93.1854 102.262 93.0992 102.076 92.9268C101.894 92.7512 101.803 92.5424 101.803 92.3004C101.803 92.0552 101.894 91.8464 102.076 91.674C102.262 91.4983 102.484 91.4105 102.742 91.4105C103.001 91.4105 103.221 91.4983 103.403 91.674C103.589 91.8464 103.682 92.0552 103.682 92.3004C103.682 92.5424 103.589 92.7512 103.403 92.9268C103.221 93.0992 103.001 93.1854 102.742 93.1854ZM106.964 91.8182V102H105.478V91.8182H106.964ZM112.255 102.154C111.503 102.154 110.855 101.993 110.311 101.672C109.771 101.347 109.354 100.891 109.059 100.305C108.767 99.7147 108.621 99.0237 108.621 98.2315C108.621 97.4493 108.767 96.7599 109.059 96.1634C109.354 95.5668 109.765 95.1011 110.292 94.7663C110.822 94.4316 111.442 94.2642 112.151 94.2642C112.582 94.2642 112.999 94.3355 113.404 94.478C113.808 94.6205 114.171 94.8442 114.493 95.1491C114.814 95.4541 115.068 95.8501 115.253 96.3374C115.439 96.8213 115.532 97.4096 115.532 98.1023V98.6293H109.461V97.5156H114.075C114.075 97.1245 113.995 96.7782 113.836 96.4766C113.677 96.1716 113.453 95.9313 113.165 95.7557C112.88 95.58 112.545 95.4922 112.161 95.4922C111.743 95.4922 111.379 95.5949 111.067 95.8004C110.759 96.0026 110.52 96.2678 110.351 96.5959C110.185 96.9207 110.103 97.2737 110.103 97.6548V98.5249C110.103 99.0353 110.192 99.4695 110.371 99.8274C110.553 100.185 110.807 100.459 111.132 100.648C111.457 100.833 111.836 100.926 112.27 100.926C112.552 100.926 112.809 100.886 113.041 100.807C113.273 100.724 113.473 100.601 113.642 100.439C113.811 100.277 113.941 100.076 114.03 99.8374L115.437 100.091C115.324 100.505 115.122 100.868 114.831 101.18C114.542 101.488 114.179 101.728 113.742 101.901C113.308 102.07 112.812 102.154 112.255 102.154Z" fill="#5483D0"/>
</svg>
